<svg width="25" height="28" viewBox="0 0 25 28" fill="none" xmlns="http://www.w3.org/2000/svg">
<path d="M20.771 5.612C19.263 4.629 18.174 3.055 17.835 1.221C17.762 0.825 17.721 0.417 17.721 0H12.907L12.899 19.292C12.818 21.452 11.04 23.186 8.86 23.186C8.183 23.186 7.545 23.017 6.983 22.721C5.695 22.043 4.814 20.693 4.814 19.139C4.814 16.908 6.629 15.092 8.86 15.092C9.277 15.092 9.676 15.161 10.054 15.279V10.365C9.663 10.312 9.266 10.278 8.86 10.278C3.974 10.278 0 14.253 0 19.138C0 22.136 1.498 24.788 3.783 26.392C5.222 27.402 6.973 27.998 8.861 27.998C13.747 27.998 17.721 24.023 17.721 19.138V9.356C19.609 10.711 21.922 11.51 24.418 11.51V6.696C23.073 6.696 21.821 6.297 20.771 5.612Z" fill="#D8BD8A"/>
</svg>
